<?xml version="1.0" encoding="utf-8"?>
<!-- Generator: Adobe Illustrator 24.0.2, SVG Export Plug-In . SVG Version: 6.00 Build 0)  -->
<svg version="1.1" id="Layer_1" xmlns="http://www.w3.org/2000/svg" xmlns:xlink="http://www.w3.org/1999/xlink" x="0px" y="0px"
	 viewBox="0 0 1000 1000" style="enable-background:new 0 0 1000 1000;" xml:space="preserve">
<style type="text/css">
	.st0{fill:#EB252B;}
	.st1{fill:#F7921E;}
	.st2{fill:#FDB814;}
	.st3{fill:#FEE200;}
	.st4{fill:#83C782;}
	.st5{fill:#4999D4;}
	.st6{fill:#36439B;}
	.st7{fill:#3F2059;}
</style>
<g>
	<g>
		<g>
			<polygon class="st0" points="569.4,269.4 540.3,270.5 563.1,340.9 592.1,339.8 592.1,339.8 603.2,329.5 612.4,357.3 641.3,356.2 
				653.1,345.3 660.8,368.4 689.8,367.3 655.9,265.9 626.8,267.1 644.2,318.9 632.1,328 612.4,267.6 583.2,268.8 594.4,302.8 
				583,311.5 			"/>
			<polygon class="st1" points="710.8,386.6 689.4,367.1 655.1,432.8 676.4,452.2 676.4,452.2 691.7,452.6 678.2,478.8 699.5,498.2 
				715.5,498.7 704.5,520.4 725.8,539.9 774.4,444.5 753,425 728.2,473.8 713.2,471.8 742.4,415.3 721,395.8 704.5,427.7 
				690.3,425.8 			"/>
		</g>
		<g>
			<polygon class="st2" points="728.4,569.4 726.5,540.6 655.5,564.8 657.3,593.4 657.3,593.4 668,604.2 639.9,613.9 641.7,642.6 
				653,653.9 629.6,662.2 631.4,690.8 733.8,654.9 731.9,626.1 679.6,644.5 670.1,632.8 731,611.8 729.2,583 694.9,594.9 
				685.9,583.8 			"/>
			<polygon class="st3" points="612.3,712.1 631.6,690.5 564.1,658 544.8,679.5 544.8,679.5 544.7,694.6 517.8,681.9 498.6,703.4 
				498.4,719.3 476,708.9 456.8,730.4 554.8,776.4 574.1,754.8 524,731.3 525.7,716.4 583.7,744.1 603.1,722.4 570.3,706.8 
				571.9,692.6 			"/>
		</g>
		<g>
			<polygon class="st4" points="429.4,729.7 458.5,728.4 435.4,658.2 406.5,659.5 406.5,659.5 395.5,669.8 386.2,642 357.2,643.3 
				345.6,654.2 337.8,631.1 308.8,632.4 343.1,733.5 372.1,732.2 354.6,680.5 366.6,671.4 386.5,731.6 415.6,730.3 404.3,696.4 
				415.7,687.7 			"/>
			<polygon class="st5" points="287.7,613.2 309.2,632.6 343.2,566.8 321.9,547.5 321.9,547.5 306.7,547.1 320,521 298.7,501.7 
				282.6,501.2 293.6,479.4 272.3,460.1 224,555.6 245.5,575 270.1,526.1 285.1,528.1 256.1,584.6 277.6,604 293.9,572.1 
				308.1,573.9 			"/>
		</g>
		<g>
			<polygon class="st6" points="271.3,430 273,458.7 343.7,435 342.1,406.5 342.1,406.5 331.5,395.8 359.5,386.3 357.9,357.8 
				346.7,346.4 370,338.4 368.3,309.9 266.4,345 268.1,373.6 320.2,355.6 329.5,367.3 268.9,387.8 270.5,416.4 304.7,404.8 
				313.6,416 			"/>
			<polygon class="st7" points="387.5,288.1 368.1,309.5 435,342.1 454.3,320.8 454.3,320.8 454.5,305.8 481.1,318.7 500.4,297.3 
				500.6,281.5 522.8,292 542.1,270.7 445,224.5 425.6,245.9 475.3,269.5 473.5,284.3 416,256.5 396.7,277.9 429.1,293.6 
				427.4,307.6 			"/>
		</g>
	</g>
	<g>
		<polygon class="st0" points="818.9,266.4 873.9,266.4 836.3,130.1 781.6,130.1 781.6,130.1 759.8,149 744.7,95 689.9,95 
			667,114.9 654.1,70.1 599.3,70.1 655.5,266.4 710.5,266.4 681.7,166.1 705.2,149.6 737.8,266.4 792.8,266.4 774.3,200.5 
			796.6,184.9 		"/>
		<polygon class="st1" points="890.7,560.9 929.6,599.8 999.4,476.9 960.7,438.2 960.7,438.2 932,436.1 959.5,387.2 920.7,348.5 
			890.5,346.3 913,305.6 874.3,266.8 775.2,445.4 814.1,484.3 864.7,392.9 892.9,397.9 833.4,503.6 872.3,542.5 905.8,482.8 
			932.6,487.5 		"/>
		<polygon class="st2" points="733.6,819.5 733.6,874.5 869.9,836.9 869.9,782.2 869.9,782.2 851,760.4 905,745.3 905,690.5 
			885.1,667.6 929.9,654.7 929.9,599.9 733.6,656.1 733.6,711.1 833.9,682.3 850.4,705.8 733.6,738.4 733.6,793.4 799.5,774.9 
			815.1,797.2 		"/>
		<polygon class="st3" points="439.1,891.3 400.2,930.2 523.1,1000 561.8,961.3 561.8,961.3 563.9,932.6 612.8,960.1 651.5,921.3 
			653.7,891.1 694.4,913.6 733.2,874.9 554.6,775.8 515.7,814.7 607.1,865.3 602.1,893.5 496.4,834 457.5,872.9 517.2,906.4 
			512.5,933.2 		"/>
		<polygon class="st4" points="180.5,734.2 125.5,734.2 163.1,870.5 217.8,870.5 217.8,870.5 239.6,851.6 254.7,905.6 309.5,905.6 
			332.4,885.7 345.3,930.5 400.1,930.5 343.9,734.2 288.9,734.2 317.7,834.5 294.2,851 261.6,734.2 206.6,734.2 225.1,800.1 
			202.8,815.7 		"/>
		<polygon class="st5" points="108.7,439.7 69.8,400.8 0,523.7 38.7,562.4 38.7,562.4 67.4,564.5 39.9,613.4 78.7,652.1 
			108.9,654.3 86.4,695 125.1,733.8 224.2,555.2 185.3,516.3 134.7,607.7 106.5,602.7 166,497 127.1,458.1 93.6,517.8 66.8,513.1 		
			"/>
		<polygon class="st6" points="265.8,181.1 265.8,126.1 129.5,163.7 129.5,218.4 129.5,218.4 148.4,240.2 94.4,255.3 94.4,310.1 
			114.3,333 69.5,345.9 69.5,400.7 265.8,344.5 265.8,289.5 165.5,318.3 149,294.8 265.8,262.2 265.8,207.2 199.9,225.7 
			184.3,203.4 		"/>
		<polygon class="st7" points="560.3,109.3 599.2,70.4 476.3,0.6 437.6,39.3 437.6,39.3 435.5,68 386.6,40.5 347.9,79.3 
			345.7,109.5 305,87 266.2,125.7 444.8,224.8 483.7,185.9 392.3,135.3 397.3,107.1 503,166.6 541.9,127.7 482.2,94.2 486.9,67.4 		
			"/>
	</g>
</g>
<g>
</g>
<g>
</g>
<g>
</g>
<g>
</g>
<g>
</g>
<g>
</g>
<g>
</g>
<g>
</g>
<g>
</g>
<g>
</g>
<g>
</g>
<g>
</g>
<g>
</g>
<g>
</g>
<g>
</g>
</svg>
