<?xml version="1.0" encoding="utf-8"?>
<!-- Generator: Adobe Illustrator 24.0.2, SVG Export Plug-In . SVG Version: 6.00 Build 0)  -->
<svg version="1.1" id="Layer_1" xmlns="http://www.w3.org/2000/svg" xmlns:xlink="http://www.w3.org/1999/xlink" x="0px" y="0px"
	 viewBox="0 0 280 108" enable-background="new 0 0 280 108" xml:space="preserve">
<g>
	<path fill="#FFFFFF" d="M-0.4,7.6h33.9l23.3,56.8H58L81.3,7.6h33.9v100.4H88.6v-58h-0.8l-22.3,57.2H49.3L27,49.5h-0.8v58.4H-0.4
		V7.6z"/>
	<polyline fill="#FFFFFF" points="155.6,107.9 128.5,107.9 128.5,32.7 155.6,32.7 	"/>
	<path fill="#EB252B" d="M142.1,24.8c-3.7,0-6.8-1.2-9.4-3.6c-2.6-2.4-3.9-5.3-3.9-8.7c0-3.4,1.3-6.3,3.9-8.7
		c2.6-2.4,5.8-3.6,9.4-3.6c3.7,0,6.8,1.2,9.4,3.6c2.6,2.4,3.9,5.3,3.9,8.7c0,3.4-1.3,6.3-3.9,8.7C148.9,23.6,145.8,24.8,142.1,24.8z
		"/>
	<path fill="#FFFFFF" d="M169.3,107.9V7.6h27.1V58h1l18.2-25.3H246l-25.6,33l26.4,42.3h-31l-15.3-26.5l-4.1,5.1v21.4H169.3z"/>
	<path fill="#FFFFFF" d="M253,107.9V32.7h27.1v75.3H253z M266.5,24.8c-3.7,0-6.8-1.2-9.4-3.6c-2.6-2.4-3.9-5.3-3.9-8.7
		c0-3.4,1.3-6.3,3.9-8.7c2.6-2.4,5.8-3.6,9.4-3.6c3.7,0,6.8,1.2,9.4,3.6c2.6,2.4,3.9,5.3,3.9,8.7c0,3.4-1.3,6.3-3.9,8.7
		C273.4,23.6,270.2,24.8,266.5,24.8z"/>
</g>
</svg>
