<?xml version="1.0" encoding="utf-8"?>
<!-- Generator: Adobe Illustrator 24.0.2, SVG Export Plug-In . SVG Version: 6.00 Build 0)  -->
<svg version="1.1" id="Layer_1" xmlns="http://www.w3.org/2000/svg" xmlns:xlink="http://www.w3.org/1999/xlink" x="0px" y="0px"
	 viewBox="0 0 627 241" enable-background="new 0 0 627 241" xml:space="preserve">
<g>
	<path fill="#010101" d="M0.3,16.2h75.8l52.1,127.1h2.6L183,16.2h75.8v224.3h-59.6V110.8h-1.8l-50,127.9h-35.9L61.6,110h-1.8v130.6
		H0.3V16.2z"/>
	<polyline fill="#010101" points="349.1,240.5 288.6,240.5 288.6,72.3 349.1,72.3 	"/>
	<path fill="#EB252B" d="M318.9,54.7c-8.2,0-15.2-2.7-21-8.1c-5.8-5.4-8.8-11.9-8.8-19.5c0-7.6,2.9-14.1,8.8-19.5
		c5.8-5.4,12.9-8.1,21-8.1c8.3,0,15.3,2.7,21.1,8.1c5.8,5.4,8.7,11.9,8.7,19.5c0,7.6-2.9,14.1-8.7,19.5
		C334.1,52,327.1,54.7,318.9,54.7z"/>
	<path fill="#010101" d="M379.8,240.5V16.2h60.5v112.6h2.2l40.7-56.5h67.9L493.9,146l58.9,94.5h-69.2l-34.3-59.3l-9.1,11.5v47.8
		H379.8z"/>
	<path fill="#010101" d="M566.9,240.5V72.3h60.5v168.3H566.9z M597.1,54.7c-8.2,0-15.2-2.7-21-8.1c-5.8-5.4-8.8-11.9-8.8-19.5
		c0-7.6,2.9-14.1,8.8-19.5c5.8-5.4,12.9-8.1,21-8.1c8.3,0,15.3,2.7,21.1,8.1c5.8,5.4,8.7,11.9,8.7,19.5c0,7.6-2.9,14.1-8.7,19.5
		C612.4,52,605.3,54.7,597.1,54.7z"/>
</g>
</svg>
