<?xml version="1.0" encoding="utf-8"?>
<!-- Generator: Adobe Illustrator 24.0.2, SVG Export Plug-In . SVG Version: 6.00 Build 0)  -->
<svg version="1.1" id="Layer_1" xmlns="http://www.w3.org/2000/svg" xmlns:xlink="http://www.w3.org/1999/xlink" x="0px" y="0px"
	 viewBox="0 0 1000 1000" enable-background="new 0 0 1000 1000" xml:space="preserve">
<g>
	<path fill="#FFFFFF" d="M0,325.5h120.9l83.2,202.7h4.2l83.2-202.7h120.9v357.8h-95V476.4h-2.8l-79.7,204.1h-57.3L97.8,475H95v208.3
		H0V325.5z"/>
	<polyline fill="#FFFFFF" points="556.3,683.3 459.8,683.3 459.8,414.9 556.3,414.9 	"/>
	<path fill="#EB252B" d="M508,387c-13,0-24.2-4.3-33.5-12.9c-9.3-8.6-14-19-14-31.1c0-12.1,4.7-22.5,14-31.1
		c9.3-8.6,20.5-12.9,33.5-12.9c13.2,0,24.4,4.3,33.6,12.9c9.3,8.6,13.9,19,13.9,31.1c0,12.1-4.6,22.5-13.9,31.1
		C532.4,382.7,521.2,387,508,387z"/>
	<path fill="#FFFFFF" d="M605.2,683.3V325.5h96.4v179.6h3.5l65-90.1h108.3l-91.2,117.6l94,150.8H770.8l-54.7-94.5l-14.5,18.3v76.2
		H605.2z"/>
	<path fill="#FFFFFF" d="M903.6,683.3V414.9h96.4v268.3H903.6z M951.8,387c-13,0-24.2-4.3-33.5-12.9c-9.3-8.6-14-19-14-31.1
		c0-12.1,4.7-22.5,14-31.1c9.3-8.6,20.5-12.9,33.5-12.9c13.2,0,24.4,4.3,33.6,12.9c9.3,8.6,13.9,19,13.9,31.1
		c0,12.1-4.6,22.5-13.9,31.1C976.2,382.7,964.9,387,951.8,387z"/>
</g>
</svg>
